<svg xmlns="http://www.w3.org/2000/svg" xmlns:xlink="http://www.w3.org/1999/xlink" width="500" zoomAndPan="magnify" viewBox="0 0 375 374.999991" height="500" preserveAspectRatio="xMidYMid meet" version="1.0"><defs><g/><clipPath id="98b46c5390"><path d="M 43.125 43.125 L 331.875 43.125 L 331.875 331.875 L 43.125 331.875 Z M 43.125 43.125 " clip-rule="nonzero"/></clipPath><clipPath id="99c999c9b2"><path d="M 187.5 43.125 C 107.765625 43.125 43.125 107.765625 43.125 187.5 C 43.125 267.238281 107.765625 331.875 187.5 331.875 C 267.238281 331.875 331.875 267.238281 331.875 187.5 C 331.875 107.765625 267.238281 43.125 187.5 43.125 " clip-rule="nonzero"/></clipPath><clipPath id="733419b84e"><path d="M 96 95 L 281 95 L 281 280.652344 L 96 280.652344 Z M 96 95 " clip-rule="nonzero"/></clipPath><clipPath id="a0e44f840b"><path d="M 63.589844 213.375 L 78.191406 213.375 L 78.191406 227.972656 L 63.589844 227.972656 Z M 63.589844 213.375 " clip-rule="nonzero"/></clipPath><clipPath id="fb6bb59481"><path d="M 70.890625 213.375 C 66.859375 213.375 63.589844 216.640625 63.589844 220.675781 C 63.589844 224.707031 66.859375 227.972656 70.890625 227.972656 C 74.921875 227.972656 78.191406 224.707031 78.191406 220.675781 C 78.191406 216.640625 74.921875 213.375 70.890625 213.375 " clip-rule="nonzero"/></clipPath><clipPath id="36af7d6445"><path d="M 296.4375 213.375 L 311.035156 213.375 L 311.035156 227.972656 L 296.4375 227.972656 Z M 296.4375 213.375 " clip-rule="nonzero"/></clipPath><clipPath id="98b58fef3d"><path d="M 303.738281 213.375 C 299.703125 213.375 296.4375 216.640625 296.4375 220.675781 C 296.4375 224.707031 299.703125 227.972656 303.738281 227.972656 C 307.769531 227.972656 311.035156 224.707031 311.035156 220.675781 C 311.035156 216.640625 307.769531 213.375 303.738281 213.375 " clip-rule="nonzero"/></clipPath><clipPath id="bade62d50e"><path d="M 113.511719 113.511719 L 261.488281 113.511719 L 261.488281 261.488281 L 113.511719 261.488281 Z M 113.511719 113.511719 " clip-rule="nonzero"/></clipPath><clipPath id="2a8d852314"><path d="M 187.5 113.511719 C 146.636719 113.511719 113.511719 146.636719 113.511719 187.5 C 113.511719 228.363281 146.636719 261.488281 187.5 261.488281 C 228.363281 261.488281 261.488281 228.363281 261.488281 187.5 C 261.488281 146.636719 228.363281 113.511719 187.5 113.511719 " clip-rule="nonzero"/></clipPath><clipPath id="28531d4499"><path d="M 122.347656 141.8125 L 252.847656 141.8125 L 252.847656 233.3125 L 122.347656 233.3125 Z M 122.347656 141.8125 " clip-rule="nonzero"/></clipPath><clipPath id="b1316952d7"><path d="M 155 169 L 237 169 L 237 233.3125 L 155 233.3125 Z M 155 169 " clip-rule="nonzero"/></clipPath></defs><rect x="-37.5" width="450" fill="#ffffff" y="-37.499999" height="449.999989" fill-opacity="1"/><rect x="-37.5" width="450" fill="#ffffff" y="-37.499999" height="449.999989" fill-opacity="1"/><rect x="-37.5" width="450" fill="#ffffff" y="-37.499999" height="449.999989" fill-opacity="1"/><g clip-path="url(#98b46c5390)"><g clip-path="url(#99c999c9b2)"><path stroke-linecap="butt" transform="matrix(0.75003, 0, 0, 0.75003, 43.12563, 43.125626)" fill="none" stroke-linejoin="miter" d="M 192.491374 -0.00083459 C 86.183174 -0.00083459 -0.00084059 86.18318 -0.00084059 192.49138 C -0.00084059 298.804788 86.183174 384.983594 192.491374 384.983594 C 298.804782 384.983594 384.983588 298.804788 384.983588 192.49138 C 384.983588 86.18318 298.804782 -0.00083459 192.491374 -0.00083459 " stroke="#27c6d9" stroke-width="12" stroke-opacity="1" stroke-miterlimit="4"/></g></g><g fill="#18363e" fill-opacity="1"><g transform="translate(104.806997, 119.408065)"><g><path d="M 1.691406 -28.84375 L -12.347656 -14.984375 C -12.566406 -14.769531 -12.570312 -14.386719 -12.351562 -14.164062 L -10.3125 -12.101562 C -10.097656 -11.878906 -9.714844 -11.878906 -9.492188 -12.09375 L -3.90625 -17.609375 L 6.417969 -7.152344 C 6.636719 -6.929688 7.019531 -6.929688 7.238281 -7.144531 L 9.304688 -9.183594 C 9.523438 -9.402344 9.527344 -9.785156 9.308594 -10.003906 L -1.015625 -20.464844 L 4.542969 -25.953125 C 4.765625 -26.171875 4.769531 -26.554688 4.550781 -26.773438 L 2.511719 -28.835938 C 2.296875 -29.058594 1.914062 -29.058594 1.691406 -28.84375 Z M 1.691406 -28.84375 "/></g></g></g><g fill="#18363e" fill-opacity="1"><g transform="translate(123.061318, 101.972379)"><g><path d="M -2.039062 -13.636719 L -1.601562 -15.277344 C -1.527344 -15.597656 -1.4375 -15.746094 -1.273438 -15.847656 L 7.816406 -21.519531 C 8.078125 -21.683594 8.164062 -22.054688 8 -22.320312 L 6.585938 -24.582031 C 6.421875 -24.84375 6.050781 -24.929688 5.789062 -24.765625 L -4.21875 -18.519531 C -4.613281 -18.277344 -4.8125 -18.011719 -4.925781 -17.535156 L -6.035156 -12.738281 C -6.109375 -12.417969 -6.101562 -11.96875 -5.894531 -11.640625 L -1.65625 -4.847656 C -1.390625 -4.421875 -1.074219 -4.207031 -0.648438 -4.109375 L 4.105469 -3.0625 C 4.480469 -2.976562 4.855469 -3.03125 5.183594 -3.234375 L 15.289062 -9.542969 C 15.550781 -9.707031 15.640625 -10.078125 15.476562 -10.34375 L 14.101562 -12.539062 C 13.9375 -12.804688 13.566406 -12.890625 13.304688 -12.726562 L 4.246094 -7.074219 C 4.019531 -6.929688 3.8125 -6.894531 3.546875 -6.957031 L 1.90625 -7.390625 L 1.621094 -7.484375 C 1.492188 -7.542969 1.398438 -7.621094 1.316406 -7.75 L 0.847656 -8.507812 L 10.097656 -14.28125 C 10.359375 -14.445312 10.449219 -14.820312 10.285156 -15.082031 L 8.871094 -17.34375 C 8.707031 -17.605469 8.332031 -17.695312 8.070312 -17.53125 L -1.179688 -11.753906 L -1.917969 -12.9375 C -2.0625 -13.164062 -2.097656 -13.371094 -2.039062 -13.636719 Z M -2.039062 -13.636719 "/></g></g></g><g fill="#18363e" fill-opacity="1"><g transform="translate(141.847061, 90.514808)"><g><path d="M 11.105469 -14.777344 L 13.539062 -15.667969 C 13.828125 -15.773438 13.992188 -16.121094 13.882812 -16.410156 L 13.074219 -18.625 C 12.941406 -18.988281 12.675781 -19.265625 12.328125 -19.425781 L 7.933594 -21.523438 C 7.539062 -21.707031 7.15625 -21.734375 6.6875 -21.558594 L -0.324219 -18.992188 C -0.757812 -18.832031 -1.011719 -18.617188 -1.21875 -18.171875 L -3.289062 -13.707031 C -3.425781 -13.410156 -3.511719 -12.964844 -3.378906 -12.601562 L -0.519531 -4.792969 C -0.386719 -4.429688 -0.0351562 -4.148438 0.261719 -4.007812 L 4.726562 -1.9375 C 5.1875 -1.695312 5.519531 -1.691406 5.953125 -1.851562 L 12.964844 -4.417969 C 13.433594 -4.589844 13.710938 -4.855469 13.878906 -5.289062 L 15.878906 -9.726562 C 16.039062 -10.074219 16.066406 -10.457031 15.933594 -10.816406 L 15.121094 -13.035156 C 15.015625 -13.324219 14.667969 -13.484375 14.378906 -13.378906 L 11.945312 -12.488281 C 11.652344 -12.382812 11.492188 -12.035156 11.597656 -11.742188 L 12.0625 -10.472656 C 12.15625 -10.21875 12.1875 -10.023438 12.035156 -9.761719 L 11.273438 -8.246094 C 11.15625 -8 11.050781 -7.835938 10.796875 -7.742188 L 5.640625 -5.855469 C 5.460938 -5.789062 5.289062 -5.808594 4.988281 -5.945312 L 3.429688 -6.609375 C 3.179688 -6.726562 3.042969 -6.878906 2.949219 -7.132812 L 0.78125 -13.054688 C 0.6875 -13.308594 0.691406 -13.515625 0.808594 -13.765625 L 1.570312 -15.28125 C 1.710938 -15.578125 1.828125 -15.703125 2.011719 -15.769531 L 7.167969 -17.660156 C 7.421875 -17.75 7.605469 -17.695312 7.855469 -17.582031 L 9.414062 -16.917969 C 9.699219 -16.816406 9.804688 -16.648438 9.894531 -16.390625 L 10.363281 -15.121094 C 10.46875 -14.832031 10.816406 -14.667969 11.105469 -14.777344 Z M 11.105469 -14.777344 "/></g></g></g><g fill="#18363e" fill-opacity="1"><g transform="translate(162.693425, 83.161139)"><g><path d="M 14.71875 -20.308594 L 11.851562 -19.882812 C 11.542969 -19.839844 11.316406 -19.53125 11.359375 -19.226562 L 12.300781 -12.835938 L 3.578125 -11.550781 L 2.636719 -17.941406 C 2.589844 -18.246094 2.285156 -18.476562 1.976562 -18.429688 L -0.890625 -18.007812 C -1.199219 -17.964844 -1.425781 -17.65625 -1.382812 -17.351562 L 1.0625 -0.742188 C 1.109375 -0.4375 1.414062 -0.207031 1.722656 -0.253906 L 4.59375 -0.675781 C 4.898438 -0.722656 5.125 -1.027344 5.082031 -1.335938 L 4.136719 -7.761719 L 12.859375 -9.046875 L 13.804688 -2.617188 C 13.851562 -2.3125 14.15625 -2.085938 14.464844 -2.128906 L 17.335938 -2.550781 C 17.640625 -2.597656 17.867188 -2.902344 17.824219 -3.210938 L 15.378906 -19.816406 C 15.332031 -20.125 15.027344 -20.351562 14.71875 -20.308594 Z M 14.71875 -20.308594 "/></g></g></g><g fill="#18363e" fill-opacity="1"><g transform="translate(183.909864, 80.132161)"><g><path d="M 21.269531 -16.558594 L 2.9375 -17.789062 C 2.628906 -17.808594 2.34375 -17.558594 2.320312 -17.25 L 2.128906 -14.355469 C 2.105469 -14.046875 2.359375 -13.757812 2.667969 -13.738281 L 9.84375 -13.253906 L 8.953125 0.0195312 C 8.933594 0.328125 9.183594 0.617188 9.492188 0.636719 L 12.386719 0.832031 C 12.695312 0.851562 12.984375 0.601562 13.003906 0.292969 L 13.898438 -12.984375 L 20.996094 -12.507812 C 21.304688 -12.484375 21.59375 -12.738281 21.613281 -13.046875 L 21.808594 -15.941406 C 21.832031 -16.25 21.578125 -16.539062 21.269531 -16.558594 Z M 21.269531 -16.558594 "/></g></g></g><g fill="#18363e" fill-opacity="1"><g transform="translate(207.797745, 82.074873)"><g><path d="M 2.496094 -4.429688 C 2.386719 -4.058594 2.4375 -3.683594 2.625 -3.347656 L 4.921875 0.945312 C 5.132812 1.328125 5.421875 1.574219 5.90625 1.714844 L 13.148438 3.820312 C 13.632812 3.960938 14.007812 3.90625 14.390625 3.695312 L 18.632812 1.304688 C 18.96875 1.117188 19.210938 0.828125 19.320312 0.457031 L 21.566406 -7.269531 C 21.671875 -7.640625 21.621094 -8.019531 21.4375 -8.355469 L 19.140625 -12.644531 C 18.929688 -13.027344 18.636719 -13.273438 18.152344 -13.414062 L 10.910156 -15.519531 C 10.429688 -15.660156 10.050781 -15.609375 9.667969 -15.398438 L 5.429688 -13.003906 C 5.09375 -12.820312 4.847656 -12.527344 4.738281 -12.15625 Z M 6.378906 -4.351562 L 8.0625 -10.144531 C 8.136719 -10.402344 8.265625 -10.566406 8.503906 -10.699219 L 10.015625 -11.46875 L 10.292969 -11.589844 C 10.390625 -11.644531 10.511719 -11.648438 10.699219 -11.59375 L 16.230469 -9.984375 C 16.378906 -9.941406 16.480469 -9.875 16.570312 -9.765625 L 16.738281 -9.515625 L 17.605469 -8.058594 C 17.738281 -7.816406 17.757812 -7.609375 17.679688 -7.351562 L 16 -1.554688 C 15.921875 -1.296875 15.792969 -1.132812 15.554688 -1 L 14.042969 -0.230469 L 13.765625 -0.109375 C 13.632812 -0.0664062 13.511719 -0.0625 13.363281 -0.105469 L 7.828125 -1.714844 C 7.640625 -1.769531 7.542969 -1.835938 7.488281 -1.933594 L 7.320312 -2.183594 L 6.453125 -3.644531 C 6.324219 -3.882812 6.304688 -4.089844 6.378906 -4.351562 Z M 6.378906 -4.351562 "/></g></g></g><g fill="#18363e" fill-opacity="1"><g transform="translate(228.931907, 88.455371)"><g><path d="M 1.296875 0.0351562 C 1.152344 0.308594 1.261719 0.671875 1.535156 0.820312 L 3.824219 2.039062 C 4.09375 2.183594 4.460938 2.074219 4.605469 1.800781 L 10.976562 -10.144531 L 17.632812 -6.597656 C 17.769531 -6.523438 17.851562 -6.433594 17.917969 -6.3125 L 18.722656 -3.953125 C 18.800781 -3.691406 18.777344 -3.484375 18.652344 -3.246094 L 13.445312 6.511719 C 13.300781 6.785156 13.410156 7.152344 13.683594 7.296875 L 15.972656 8.519531 C 16.246094 8.664062 16.609375 8.550781 16.757812 8.277344 L 22.472656 -2.4375 C 22.652344 -2.777344 22.679688 -3.15625 22.570312 -3.523438 L 21.058594 -8.582031 C 20.929688 -9 20.695312 -9.300781 20.253906 -9.539062 L 10.800781 -14.578125 C 10.050781 -14.980469 9.160156 -14.707031 8.777344 -13.992188 Z M 1.296875 0.0351562 "/></g></g></g><g fill="#18363e" fill-opacity="1"><g transform="translate(248.698511, 99.828205)"><g><path d="M 1.394531 1.042969 L 3.71875 2.777344 C 3.96875 2.960938 4.347656 2.90625 4.53125 2.660156 L 14.574219 -10.789062 C 14.757812 -11.039062 14.703125 -11.417969 14.457031 -11.601562 L 12.132812 -13.339844 C 11.882812 -13.523438 11.503906 -13.46875 11.320312 -13.21875 L 1.277344 0.230469 C 1.089844 0.476562 1.148438 0.855469 1.394531 1.042969 Z M 1.394531 1.042969 "/></g></g></g><g fill="#18363e" fill-opacity="1"><g transform="translate(256.407818, 105.236416)"><g><path d="M 18.046875 3.992188 L 19.867188 5.835938 C 20.085938 6.058594 20.46875 6.058594 20.6875 5.84375 L 22.367188 4.1875 C 22.644531 3.914062 22.785156 3.5625 22.785156 3.179688 L 22.878906 -1.6875 C 22.878906 -2.128906 22.746094 -2.484375 22.394531 -2.839844 L 17.15625 -8.160156 C 16.828125 -8.488281 16.527344 -8.628906 16.035156 -8.632812 L 11.113281 -8.667969 C 10.785156 -8.671875 10.347656 -8.566406 10.070312 -8.292969 L 4.148438 -2.457031 C 3.871094 -2.1875 3.761719 -1.75 3.757812 -1.421875 L 3.722656 3.5 C 3.691406 4.019531 3.824219 4.324219 4.148438 4.652344 L 9.390625 9.96875 C 9.742188 10.328125 10.097656 10.46875 10.5625 10.445312 L 15.429688 10.425781 C 15.8125 10.429688 16.167969 10.292969 16.445312 10.023438 L 18.125 8.367188 C 18.347656 8.148438 18.347656 7.765625 18.132812 7.546875 L 16.3125 5.699219 C 16.09375 5.480469 15.710938 5.476562 15.492188 5.695312 L 14.527344 6.644531 C 14.335938 6.835938 14.171875 6.941406 13.871094 6.914062 L 12.175781 6.847656 C 11.902344 6.84375 11.710938 6.816406 11.519531 6.621094 L 7.664062 2.710938 C 7.53125 2.570312 7.476562 2.40625 7.476562 2.078125 L 7.4375 0.382812 C 7.4375 0.109375 7.523438 -0.0820312 7.714844 -0.269531 L 12.207031 -4.695312 C 12.398438 -4.886719 12.589844 -4.964844 12.863281 -4.964844 L 14.558594 -4.898438 C 14.886719 -4.894531 15.050781 -4.839844 15.1875 -4.699219 L 19.042969 -0.789062 C 19.230469 -0.59375 19.257812 -0.402344 19.253906 -0.128906 L 19.296875 1.566406 C 19.324219 1.867188 19.210938 2.03125 19.019531 2.21875 L 18.054688 3.171875 C 17.835938 3.386719 17.832031 3.769531 18.046875 3.992188 Z M 18.046875 3.992188 "/></g></g></g><g fill="#18363e" fill-opacity="1"><g transform="translate(70.867484, 241.767169)"><g><path d="M 33.617188 14.984375 L 32.15625 12.839844 C 31.984375 12.585938 31.605469 12.515625 31.351562 12.6875 L 20.796875 19.878906 C 20.570312 20.03125 20.335938 20.097656 20.097656 20.023438 L 18.121094 19.59375 C 17.992188 19.539062 17.894531 19.464844 17.804688 19.339844 L 14.910156 15.082031 C 14.820312 14.957031 14.789062 14.839844 14.785156 14.699219 L 15.078125 12.722656 C 15.078125 12.582031 15.160156 12.429688 15.234375 12.332031 L 26.078125 4.949219 C 26.335938 4.773438 26.40625 4.398438 26.230469 4.140625 L 24.75 1.964844 C 24.578125 1.710938 24.199219 1.640625 23.945312 1.8125 L 13.101562 9.199219 C 12.984375 9.230469 12.8125 9.253906 12.683594 9.203125 L 10.734375 8.75 C 10.605469 8.695312 10.507812 8.621094 10.421875 8.496094 L 7.195312 3.761719 C 7.109375 3.632812 7.078125 3.515625 7.074219 3.375 L 7.398438 1.234375 C 7.449219 0.96875 7.566406 0.792969 7.789062 0.640625 L 18.28125 -6.503906 C 18.535156 -6.675781 18.605469 -7.054688 18.433594 -7.308594 L 16.972656 -9.453125 C 16.800781 -9.707031 16.421875 -9.78125 16.167969 -9.605469 L 4.746094 -1.828125 C 4.429688 -1.609375 4.25 -1.253906 4.15625 -0.910156 L 3.195312 3.863281 C 3.113281 4.296875 3.179688 4.671875 3.464844 5.085938 L 7.753906 11.386719 C 8.039062 11.804688 8.363281 12.003906 8.792969 12.085938 L 11.511719 12.574219 L 10.972656 15.285156 C 10.890625 15.714844 10.957031 16.089844 11.242188 16.503906 L 15.140625 22.230469 C 15.421875 22.644531 15.769531 22.878906 16.175781 22.929688 L 20.972656 23.78125 C 21.351562 23.855469 21.726562 23.785156 22.042969 23.566406 L 33.464844 15.792969 C 33.71875 15.617188 33.792969 15.242188 33.617188 14.984375 Z M 33.617188 14.984375 "/></g></g></g><g fill="#18363e" fill-opacity="1"><g transform="translate(92.230642, 271.095453)"><g><path d="M 13.578125 -6.574219 L 15.273438 -6.582031 C 15.601562 -6.59375 15.769531 -6.546875 15.910156 -6.414062 L 23.40625 0.527344 C 23.632812 0.738281 24.015625 0.722656 24.226562 0.496094 L 26.042969 -1.464844 C 26.253906 -1.691406 26.238281 -2.074219 26.011719 -2.285156 L 17.519531 -10.148438 C 17.179688 -10.460938 16.875 -10.585938 16.382812 -10.570312 L 11.867188 -10.421875 C 11.539062 -10.410156 11.109375 -10.285156 10.84375 -10 L 4.058594 -2.675781 C 3.71875 -2.304688 3.59375 -1.945312 3.613281 -1.507812 L 3.839844 2.976562 C 3.851562 3.359375 4.003906 3.707031 4.289062 3.972656 L 12.863281 11.914062 C 13.089844 12.121094 13.472656 12.109375 13.683594 11.882812 L 15.445312 9.980469 C 15.65625 9.75 15.640625 9.367188 15.414062 9.160156 L 7.945312 2.242188 C 7.746094 2.058594 7.65625 1.871094 7.648438 1.597656 L 7.652344 -0.402344 C 7.675781 -0.539062 7.726562 -0.652344 7.832031 -0.765625 L 9.171875 -2.214844 L 16.808594 4.859375 C 17.035156 5.070312 17.417969 5.054688 17.628906 4.828125 L 19.445312 2.871094 C 19.652344 2.640625 19.640625 2.257812 19.414062 2.050781 L 11.773438 -5.023438 L 12.933594 -6.273438 C 13.117188 -6.472656 13.304688 -6.5625 13.578125 -6.574219 Z M 13.578125 -6.574219 "/></g></g></g><g fill="#18363e" fill-opacity="1"><g transform="translate(108.288816, 285.721913)"><g><path d="M 19.875 2.898438 L 19.3125 0.359375 L 20.117188 0.191406 C 20.546875 0.101562 20.867188 -0.105469 21.140625 -0.527344 L 22.855469 -3.152344 C 23.128906 -3.574219 23.191406 -3.953125 23.097656 -4.378906 L 22.269531 -8.0625 C 22.167969 -8.40625 21.984375 -8.757812 21.660156 -8.96875 L 12.035156 -15.253906 C 11.773438 -15.421875 11.398438 -15.34375 11.230469 -15.082031 L 1.289062 0.148438 C 1.121094 0.40625 1.199219 0.78125 1.457031 0.953125 L 12.152344 7.933594 C 12.476562 8.144531 12.875 8.171875 13.230469 8.125 L 16.933594 7.402344 C 17.363281 7.3125 17.683594 7.105469 17.957031 6.683594 L 19.628906 4.125 C 19.90625 3.703125 19.964844 3.324219 19.875 2.898438 Z M 18.765625 -6.378906 C 18.992188 -6.230469 19.144531 -6.039062 19.167969 -5.789062 L 19.273438 -4.890625 C 19.273438 -4.75 19.242188 -4.632812 19.160156 -4.503906 L 18.417969 -3.367188 C 18.335938 -3.238281 18.238281 -3.164062 18.109375 -3.109375 L 17.242188 -2.839844 C 17.007812 -2.765625 16.769531 -2.824219 16.542969 -2.972656 L 10.453125 -6.949219 L 12.671875 -10.351562 Z M 15.238281 3.84375 C 15.152344 3.972656 15.054688 4.050781 14.929688 4.105469 L 14.0625 4.371094 C 13.824219 4.449219 13.589844 4.386719 13.363281 4.238281 L 6.199219 -0.4375 L 8.378906 -3.773438 L 15.539062 0.898438 C 15.769531 1.046875 15.917969 1.238281 15.945312 1.488281 L 16.050781 2.386719 C 16.050781 2.527344 16.019531 2.644531 15.933594 2.773438 Z M 15.238281 3.84375 "/></g></g></g><g fill="#18363e" fill-opacity="1"><g transform="translate(126.691103, 297.210931)"><g/></g></g><g fill="#18363e" fill-opacity="1"><g transform="translate(137.363106, 302.572059)"><g><path d="M 22.183594 -8.996094 L 19.949219 -13.324219 C 19.777344 -13.667969 19.496094 -13.925781 19.128906 -14.046875 L 7.738281 -17.820312 C 7.445312 -17.917969 7.105469 -17.746094 7.007812 -17.453125 L 1.285156 -0.1875 C 1.1875 0.109375 1.359375 0.449219 1.652344 0.546875 L 12.929688 4.285156 C 13.371094 4.429688 13.703125 4.417969 14.140625 4.199219 L 18.542969 1.988281 C 18.835938 1.839844 19.179688 1.546875 19.300781 1.179688 L 22.257812 -7.75 C 22.417969 -8.226562 22.378906 -8.605469 22.183594 -8.996094 Z M 15.761719 -1.054688 C 15.675781 -0.796875 15.542969 -0.640625 15.296875 -0.515625 L 13.757812 0.195312 C 13.460938 0.34375 13.292969 0.367188 13.109375 0.308594 L 5.90625 -2.078125 L 9.609375 -13.246094 L 16.773438 -10.871094 C 17.027344 -10.785156 17.1875 -10.652344 17.3125 -10.40625 L 18.023438 -8.867188 L 18.132812 -8.585938 C 18.171875 -8.453125 18.171875 -8.328125 18.121094 -8.183594 Z M 15.761719 -1.054688 "/></g></g></g><g fill="#18363e" fill-opacity="1"><g transform="translate(158.599665, 309.365617)"><g><path d="M 7.546875 -13.058594 L 8.945312 -14.023438 C 9.210938 -14.214844 9.375 -14.269531 9.566406 -14.242188 L 19.667969 -12.703125 C 19.972656 -12.65625 20.28125 -12.882812 20.328125 -13.1875 L 20.730469 -15.828125 C 20.777344 -16.132812 20.550781 -16.441406 20.246094 -16.488281 L 8.804688 -18.230469 C 8.347656 -18.300781 8.023438 -18.234375 7.625 -17.941406 L 3.972656 -15.289062 C 3.707031 -15.09375 3.421875 -14.746094 3.363281 -14.363281 L 1.859375 -4.492188 C 1.78125 -3.996094 1.882812 -3.628906 2.144531 -3.273438 L 4.847656 0.308594 C 5.074219 0.617188 5.394531 0.820312 5.777344 0.878906 L 17.332031 2.640625 C 17.636719 2.6875 17.945312 2.460938 17.992188 2.152344 L 18.382812 -0.410156 C 18.429688 -0.714844 18.203125 -1.023438 17.894531 -1.070312 L 7.835938 -2.605469 C 7.566406 -2.644531 7.386719 -2.75 7.226562 -2.972656 L 6.105469 -4.628906 C 6.046875 -4.753906 6.027344 -4.875 6.050781 -5.027344 L 6.347656 -6.980469 L 16.640625 -5.414062 C 16.945312 -5.367188 17.253906 -5.59375 17.300781 -5.898438 L 17.703125 -8.539062 C 17.75 -8.84375 17.523438 -9.152344 17.214844 -9.199219 L 6.925781 -10.765625 L 7.179688 -12.449219 C 7.222656 -12.71875 7.328125 -12.898438 7.546875 -13.058594 Z M 7.546875 -13.058594 "/></g></g></g><g fill="#18363e" fill-opacity="1"><g transform="translate(180.152047, 312.492269)"><g><path d="M 18.546875 -19.75 L 15.953125 -19.695312 C 15.644531 -19.6875 15.378906 -19.414062 15.382812 -19.101562 L 15.597656 -9.121094 C 15.605469 -8.847656 15.53125 -8.691406 15.339844 -8.457031 L 12.175781 -4.402344 L 11.949219 -4.203125 C 11.835938 -4.125 11.71875 -4.082031 11.5625 -4.078125 L 9.011719 -4.023438 C 8.816406 -4.019531 8.699219 -4.058594 8.621094 -4.132812 L 8.386719 -4.320312 L 5.011719 -8.234375 C 4.8125 -8.464844 4.730469 -8.617188 4.726562 -8.886719 L 4.511719 -18.871094 C 4.507812 -19.179688 4.230469 -19.445312 3.917969 -19.4375 L 1.328125 -19.382812 C 1.019531 -19.375 0.753906 -19.097656 0.757812 -18.789062 L 1 -7.609375 C 1.007812 -7.222656 1.167969 -6.914062 1.445312 -6.613281 L 6.839844 -0.609375 C 7.117188 -0.269531 7.507812 -0.160156 8.007812 -0.171875 L 12.730469 -0.273438 C 13.230469 -0.28125 13.578125 -0.40625 13.878906 -0.761719 L 18.972656 -6.984375 C 19.238281 -7.300781 19.386719 -7.613281 19.375 -8 L 19.136719 -19.183594 C 19.132812 -19.492188 18.855469 -19.757812 18.546875 -19.75 Z M 18.546875 -19.75 "/></g></g></g><g fill="#18363e" fill-opacity="1"><g transform="translate(203.339369, 311.719267)"><g><path d="M 2.683594 -14.84375 L 3.675781 -16.222656 C 3.859375 -16.496094 3.996094 -16.601562 4.1875 -16.636719 L 14.210938 -18.605469 C 14.515625 -18.664062 14.730469 -18.984375 14.667969 -19.289062 L 14.15625 -21.90625 C 14.09375 -22.210938 13.777344 -22.425781 13.472656 -22.367188 L 2.121094 -20.136719 C 1.664062 -20.046875 1.382812 -19.871094 1.109375 -19.464844 L -1.433594 -15.730469 C -1.617188 -15.457031 -1.769531 -15.035156 -1.695312 -14.652344 L 0.230469 -4.855469 C 0.328125 -4.363281 0.546875 -4.050781 0.910156 -3.808594 L 4.664062 -1.351562 C 4.984375 -1.136719 5.355469 -1.050781 5.734375 -1.125 L 17.203125 -3.378906 C 17.507812 -3.4375 17.71875 -3.757812 17.660156 -4.058594 L 17.160156 -6.605469 C 17.101562 -6.90625 16.78125 -7.121094 16.480469 -7.0625 L 6.492188 -5.101562 C 6.226562 -5.046875 6.019531 -5.085938 5.792969 -5.238281 L 4.179688 -6.421875 C 4.082031 -6.519531 4.023438 -6.628906 3.992188 -6.777344 L 3.613281 -8.714844 L 13.828125 -10.722656 C 14.132812 -10.78125 14.34375 -11.097656 14.285156 -11.402344 L 13.769531 -14.023438 C 13.710938 -14.328125 13.394531 -14.539062 13.089844 -14.480469 L 2.875 -12.476562 L 2.546875 -14.144531 C 2.492188 -14.410156 2.53125 -14.617188 2.683594 -14.84375 Z M 2.683594 -14.84375 "/></g></g></g><g fill="#18363e" fill-opacity="1"><g transform="translate(224.488385, 307.326342)"><g><path d="M -5.4375 -18.003906 L -0.632812 -5.046875 C -0.5 -4.683594 -0.148438 -4.402344 0.152344 -4.265625 L 4.628906 -2.210938 C 5.074219 -2.007812 5.40625 -2.003906 5.84375 -2.167969 L 15.3125 -5.679688 C 15.601562 -5.785156 15.761719 -6.132812 15.65625 -6.425781 L 14.726562 -8.929688 C 14.617188 -9.21875 14.269531 -9.378906 13.980469 -9.269531 L 5.636719 -6.175781 C 5.453125 -6.109375 5.28125 -6.128906 4.984375 -6.265625 L 3.269531 -6.992188 C 3.019531 -7.105469 2.878906 -7.257812 2.785156 -7.511719 L -1.628906 -19.414062 C -1.734375 -19.707031 -2.082031 -19.863281 -2.375 -19.757812 L -5.09375 -18.75 C -5.386719 -18.640625 -5.542969 -18.292969 -5.4375 -18.003906 Z M -5.4375 -18.003906 "/></g></g></g><g fill="#18363e" fill-opacity="1"><g transform="translate(243.616776, 300.101617)"><g><path d="M -1.449219 -4.878906 C -1.257812 -4.542969 -0.949219 -4.316406 -0.578125 -4.214844 L 4.105469 -2.878906 C 4.527344 -2.761719 4.90625 -2.800781 5.34375 -3.050781 L 11.898438 -6.792969 C 12.335938 -7.042969 12.558594 -7.347656 12.675781 -7.769531 L 13.90625 -12.484375 C 14.007812 -12.855469 13.96875 -13.234375 13.777344 -13.570312 L 9.09375 -21.769531 C 8.902344 -22.105469 8.597656 -22.332031 8.226562 -22.433594 L 3.542969 -23.769531 C 3.121094 -23.882812 2.742188 -23.847656 2.304688 -23.597656 L -4.25 -19.855469 C -4.6875 -19.605469 -4.914062 -19.296875 -5.027344 -18.875 L -6.257812 -14.164062 C -6.359375 -13.792969 -6.320312 -13.414062 -6.128906 -13.078125 Z M 1.3125 -7.613281 L -2.371094 -14.066406 C -2.503906 -14.300781 -2.535156 -14.507812 -2.460938 -14.769531 L -1.960938 -16.394531 L -1.855469 -16.675781 C -1.828125 -16.78125 -1.746094 -16.875 -1.578125 -16.96875 L 3.429688 -19.828125 C 3.566406 -19.90625 3.683594 -19.929688 3.824219 -19.917969 L 4.121094 -19.867188 L 5.773438 -19.472656 C 6.035156 -19.398438 6.199219 -19.269531 6.332031 -19.035156 L 10.019531 -12.582031 C 10.152344 -12.347656 10.179688 -12.140625 10.109375 -11.875 L 9.609375 -10.253906 L 9.503906 -9.972656 C 9.441406 -9.847656 9.359375 -9.753906 9.226562 -9.679688 L 4.21875 -6.820312 C 4.050781 -6.722656 3.929688 -6.699219 3.824219 -6.726562 L 3.527344 -6.78125 L 1.875 -7.175781 C 1.609375 -7.246094 1.449219 -7.378906 1.3125 -7.613281 Z M 1.3125 -7.613281 "/></g></g></g><g fill="#18363e" fill-opacity="1"><g transform="translate(262.904987, 288.843791)"><g><path d="M 4.152344 -23.546875 L -0.703125 -23.957031 C -1.085938 -23.992188 -1.453125 -23.890625 -1.75 -23.644531 L -10.972656 -16.03125 C -11.210938 -15.835938 -11.25 -15.453125 -11.050781 -15.214844 L 0.453125 -1.277344 C 0.648438 -1.039062 1.03125 -1 1.269531 -1.199219 L 3.328125 -2.898438 C 3.566406 -3.09375 3.605469 -3.476562 3.40625 -3.714844 L 1.558594 -5.953125 L 8.1875 -11.421875 C 8.542969 -11.71875 8.707031 -12.003906 8.753906 -12.496094 L 9.226562 -17.398438 C 9.257812 -17.726562 9.1875 -18.171875 8.941406 -18.46875 L 5.246094 -22.945312 C 4.929688 -23.335938 4.585938 -23.503906 4.152344 -23.546875 Z M 5.167969 -16.660156 C 5.339844 -16.449219 5.40625 -16.25 5.378906 -15.980469 L 5.160156 -14.296875 C 5.128906 -13.96875 5.0625 -13.808594 4.910156 -13.6875 L -0.878906 -8.910156 L -6.078125 -15.207031 L -0.316406 -19.960938 C -0.105469 -20.132812 0.0898438 -20.195312 0.363281 -20.171875 L 2.046875 -19.953125 L 2.34375 -19.898438 C 2.476562 -19.859375 2.582031 -19.792969 2.679688 -19.671875 Z M 5.167969 -16.660156 "/></g></g></g><g fill="#18363e" fill-opacity="1"><g transform="translate(279.923991, 274.502879)"><g><path d="M -7.042969 -13.339844 L -7.113281 -15.035156 C -7.136719 -15.363281 -7.09375 -15.53125 -6.96875 -15.675781 L -0.292969 -23.410156 C -0.0898438 -23.644531 -0.117188 -24.027344 -0.351562 -24.230469 L -2.371094 -25.976562 C -2.605469 -26.175781 -2.988281 -26.148438 -3.191406 -25.914062 L -10.753906 -17.15625 C -11.054688 -16.804688 -11.171875 -16.492188 -11.132812 -16.003906 L -10.832031 -11.496094 C -10.808594 -11.171875 -10.667969 -10.742188 -10.375 -10.488281 L -2.816406 -3.964844 C -2.433594 -3.636719 -2.070312 -3.523438 -1.632812 -3.558594 L 2.839844 -3.941406 C 3.222656 -3.96875 3.566406 -4.128906 3.820312 -4.421875 L 11.457031 -13.269531 C 11.65625 -13.503906 11.628906 -13.886719 11.394531 -14.089844 L 9.433594 -15.785156 C 9.199219 -15.984375 8.816406 -15.957031 8.613281 -15.722656 L 1.964844 -8.019531 C 1.785156 -7.8125 1.601562 -7.71875 1.328125 -7.699219 L -0.671875 -7.632812 C -0.808594 -7.652344 -0.921875 -7.699219 -1.039062 -7.796875 L -2.53125 -9.089844 L 4.269531 -16.96875 C 4.472656 -17.203125 4.445312 -17.585938 4.210938 -17.789062 L 2.1875 -19.53125 C 1.953125 -19.734375 1.570312 -19.707031 1.371094 -19.472656 L -5.433594 -11.59375 L -6.722656 -12.703125 C -6.925781 -12.882812 -7.023438 -13.066406 -7.042969 -13.339844 Z M -7.042969 -13.339844 "/></g></g></g><g fill="#18363e" fill-opacity="1"><g transform="translate(293.99848, 257.936623)"><g><path d="M -3.75 -23.851562 L -8.464844 -22.625 C -8.835938 -22.535156 -9.148438 -22.316406 -9.347656 -21.984375 L -15.675781 -11.476562 C -15.835938 -11.210938 -15.746094 -10.839844 -15.480469 -10.679688 L 0.101562 -1.292969 C 0.367188 -1.132812 0.738281 -1.226562 0.898438 -1.492188 L 2.277344 -3.777344 C 2.4375 -4.042969 2.34375 -4.417969 2.078125 -4.574219 L -1.070312 -6.472656 L 2.402344 -12.242188 L 6.988281 -12.28125 C 7.269531 -12.292969 7.46875 -12.398438 7.585938 -12.597656 L 9.085938 -15.082031 C 9.324219 -15.480469 9.078125 -15.898438 8.628906 -15.902344 L 3.585938 -15.777344 L 2.515625 -20.078125 C 2.4375 -20.398438 2.226562 -20.796875 1.894531 -20.996094 L -2.515625 -23.652344 C -2.945312 -23.910156 -3.324219 -23.957031 -3.75 -23.851562 Z M -10.785156 -12.324219 L -6.769531 -18.988281 C -6.632812 -19.21875 -6.464844 -19.34375 -6.199219 -19.410156 L -4.539062 -19.765625 L -4.242188 -19.8125 C -4.101562 -19.820312 -3.980469 -19.792969 -3.847656 -19.710938 L -1.066406 -18.035156 C -0.832031 -17.894531 -0.707031 -17.730469 -0.640625 -17.464844 L -0.285156 -15.804688 C -0.207031 -15.484375 -0.21875 -15.3125 -0.320312 -15.144531 L -4.351562 -8.449219 Z M -10.785156 -12.324219 "/></g></g></g><g clip-path="url(#733419b84e)"><path fill="#27c6d9" d="M 127.976562 247.039062 C 126.90625 245.964844 125.410156 245.582031 124.035156 245.886719 C 93.714844 212.851562 93.582031 161.777344 123.640625 128.582031 C 125.007812 128.875 126.488281 128.492188 127.554688 127.425781 C 129.21875 125.753906 129.21875 123.039062 127.554688 121.367188 C 125.886719 119.695312 123.183594 119.695312 121.519531 121.367188 C 120.394531 122.496094 120.03125 124.089844 120.421875 125.527344 C 113.15625 133.523438 107.4375 142.621094 103.394531 152.628906 C 98.96875 163.578125 96.726562 175.148438 96.726562 187.019531 C 96.726562 198.886719 98.96875 210.457031 103.394531 221.40625 C 107.515625 231.605469 113.375 240.859375 120.839844 248.964844 C 120.460938 250.390625 120.828125 251.976562 121.945312 253.09375 C 123.609375 254.769531 126.3125 254.769531 127.976562 253.09375 C 129.644531 251.421875 129.644531 248.710938 127.976562 247.039062 Z M 155.714844 105.761719 C 157.382812 107.433594 160.082031 107.433594 161.75 105.761719 C 162.328125 105.179688 162.707031 104.472656 162.882812 103.726562 C 187.847656 96.222656 214.800781 100.351562 236.300781 114.976562 C 236.21875 116.171875 236.628906 117.394531 237.539062 118.304688 C 239.207031 119.976562 241.90625 119.976562 243.574219 118.304688 C 245.242188 116.632812 245.242188 113.921875 243.574219 112.25 C 242.300781 110.96875 240.417969 110.671875 238.863281 111.347656 C 233.679688 107.816406 228.132812 104.828125 222.34375 102.445312 C 215.566406 99.660156 208.449219 97.699219 201.179688 96.621094 C 187.941406 94.652344 174.308594 95.652344 161.527344 99.496094 C 159.851562 98.035156 157.308594 98.105469 155.714844 99.707031 C 154.050781 101.378906 154.050781 104.089844 155.714844 105.761719 Z M 252.164062 251.636719 C 259.824219 243.949219 265.992188 235.089844 270.488281 225.300781 C 274.417969 216.746094 276.988281 207.683594 278.140625 198.320312 C 278.589844 198.113281 279.011719 197.824219 279.378906 197.453125 C 281.046875 195.78125 281.046875 193.070312 279.378906 191.398438 C 277.714844 189.726562 275.011719 189.726562 273.347656 191.398438 C 271.679688 193.070312 271.679688 195.78125 273.347656 197.453125 C 273.472656 197.582031 273.605469 197.695312 273.742188 197.804688 C 271.367188 216.914062 262.65625 234.824219 249.035156 248.496094 C 235.191406 262.390625 217.089844 271.144531 197.734375 273.386719 C 197.613281 273.222656 197.476562 273.0625 197.328125 272.914062 C 195.664062 271.242188 192.960938 271.242188 191.296875 272.914062 C 189.628906 274.589844 189.628906 277.296875 191.296875 278.972656 C 192.960938 280.644531 195.664062 280.644531 197.328125 278.972656 C 197.675781 278.625 197.949219 278.230469 198.148438 277.8125 C 207.511719 276.746094 216.585938 274.25 225.175781 270.371094 C 235.226562 265.828125 244.304688 259.527344 252.164062 251.636719 Z M 237.863281 228.082031 C 236.28125 228.082031 234.902344 228.949219 234.171875 230.238281 L 219.308594 230.238281 C 218.757812 230.238281 218.253906 229.890625 218.0625 229.371094 L 212.238281 213.71875 C 211.433594 211.558594 209.351562 210.109375 207.058594 210.109375 L 172.191406 210.109375 C 169.878906 210.109375 167.792969 211.574219 167 213.75 L 161.304688 229.363281 C 161.113281 229.886719 160.609375 230.238281 160.054688 230.238281 L 141.195312 230.238281 C 140.464844 228.949219 139.085938 228.082031 137.503906 228.082031 C 135.15625 228.082031 133.257812 229.992188 133.257812 232.347656 C 133.257812 234.703125 135.15625 236.609375 137.503906 236.609375 C 139.085938 236.609375 140.464844 235.742188 141.195312 234.453125 L 160.054688 234.453125 C 162.367188 234.453125 164.453125 232.992188 165.25 230.8125 L 170.945312 215.203125 C 171.136719 214.679688 171.636719 214.328125 172.191406 214.328125 L 207.058594 214.328125 C 207.609375 214.328125 208.109375 214.675781 208.300781 215.195312 L 214.125 230.847656 C 214.929688 233.003906 217.011719 234.453125 219.308594 234.453125 L 234.171875 234.453125 C 234.902344 235.742188 236.28125 236.609375 237.863281 236.609375 C 240.207031 236.609375 242.109375 234.703125 242.109375 232.347656 C 242.109375 229.992188 240.207031 228.082031 237.863281 228.082031 Z M 142.875 194.417969 C 142.875 192.277344 144.449219 190.507812 146.5 190.203125 L 159.476562 156.550781 C 160.328125 154.347656 162.398438 152.953125 164.75 153.003906 C 167.105469 153.054688 169.117188 154.53125 169.871094 156.773438 L 179.375 184.894531 C 179.558594 185.4375 180.0625 185.800781 180.632812 185.800781 L 196.347656 185.800781 C 196.972656 185.800781 197.316406 185.402344 197.433594 185.234375 C 197.554688 185.0625 197.808594 184.605469 197.597656 184.015625 L 189.808594 162.210938 L 189.792969 162.25 L 176.148438 124.152344 C 175.539062 122.453125 175.792969 120.558594 176.828125 119.082031 C 177.863281 117.601562 179.554688 116.722656 181.351562 116.722656 L 201.363281 116.722656 C 203.628906 116.722656 205.703125 118.148438 206.519531 120.273438 L 224.378906 166.605469 C 226.285156 167.027344 227.710938 168.730469 227.710938 170.769531 C 227.710938 173.125 225.808594 175.03125 223.464844 175.03125 C 221.117188 175.03125 219.214844 173.125 219.214844 170.769531 C 219.214844 169.644531 219.648438 168.625 220.355469 167.863281 L 202.601562 121.792969 C 202.402344 121.28125 201.90625 120.941406 201.363281 120.941406 L 181.351562 120.941406 C 180.730469 120.941406 180.386719 121.335938 180.265625 121.507812 C 180.148438 121.675781 179.890625 122.136719 180.101562 122.722656 L 189.714844 149.566406 L 189.734375 149.511719 L 201.554688 182.59375 C 202.160156 184.289062 201.90625 186.183594 200.871094 187.660156 C 199.835938 189.136719 198.144531 190.015625 196.347656 190.015625 L 180.632812 190.015625 C 178.261719 190.015625 176.15625 188.503906 175.394531 186.25 L 165.890625 158.125 C 165.621094 157.328125 164.941406 157.226562 164.660156 157.222656 C 164.382812 157.21875 163.699219 157.285156 163.394531 158.074219 L 150.417969 191.726562 C 151.011719 192.460938 151.371094 193.398438 151.371094 194.417969 C 151.371094 196.773438 149.46875 198.683594 147.125 198.683594 C 144.777344 198.683594 142.875 196.773438 142.875 194.417969 " fill-opacity="1" fill-rule="nonzero"/></g><g clip-path="url(#a0e44f840b)"><g clip-path="url(#fb6bb59481)"><path fill="#27c6d9" d="M 63.589844 213.375 L 78.191406 213.375 L 78.191406 227.972656 L 63.589844 227.972656 Z M 63.589844 213.375 " fill-opacity="1" fill-rule="nonzero"/></g></g><g clip-path="url(#36af7d6445)"><g clip-path="url(#98b58fef3d)"><path fill="#27c6d9" d="M 296.4375 213.375 L 311.035156 213.375 L 311.035156 227.972656 L 296.4375 227.972656 Z M 296.4375 213.375 " fill-opacity="1" fill-rule="nonzero"/></g></g><g clip-path="url(#bade62d50e)"><g clip-path="url(#2a8d852314)"><path fill="#ffffff" d="M 113.511719 113.511719 L 261.488281 113.511719 L 261.488281 261.488281 L 113.511719 261.488281 Z M 113.511719 113.511719 " fill-opacity="1" fill-rule="nonzero"/></g></g><g clip-path="url(#28531d4499)"><path fill="#1e3b42" d="M 161.566406 163.785156 C 161.246094 164.433594 161.042969 164.90625 160.789062 165.351562 C 154.273438 176.644531 147.765625 187.941406 141.199219 199.203125 C 141.074219 199.417969 140.972656 199.621094 122.347656 233.253906 L 147.707031 233.253906 C 175.140625 184.148438 180.316406 175.144531 185.445312 166.109375 C 186.609375 164.054688 187.929688 163.53125 190.15625 163.550781 C 206.421875 163.664062 222.683594 163.652344 238.949219 163.601562 C 239.703125 163.597656 240.773438 163.015625 241.152344 162.375 C 244.941406 155.988281 248.617188 149.539062 252.3125 143.101562 C 252.507812 142.765625 252.628906 142.386719 252.855469 141.859375 L 132.082031 141.859375 L 132.082031 163.585938 C 141.433594 163.605469 150.78125 163.609375 160.132812 163.621094 C 160.558594 163.621094 160.984375 163.71875 161.566406 163.785156 Z M 161.566406 163.785156 " fill-opacity="1" fill-rule="nonzero"/></g><g clip-path="url(#b1316952d7)"><path fill="#1e3b42" d="M 180.375 233.253906 C 200.464844 196.664062 201.414062 195.019531 202.355469 193.378906 C 203.035156 192.199219 203.75 191.773438 205.097656 191.792969 C 210.945312 191.878906 216.792969 191.808594 222.640625 191.882812 C 223.804688 191.898438 224.417969 191.503906 224.980469 190.519531 C 228.476562 184.375 232.039062 178.269531 235.570312 172.144531 C 235.90625 171.558594 236.164062 170.925781 236.558594 170.101562 C 235.792969 170.027344 235.292969 169.9375 234.792969 169.9375 C 220.816406 169.929688 206.839844 169.957031 192.863281 169.886719 C 191.222656 169.878906 190.3125 170.441406 189.5625 171.835938 C 187.898438 174.921875 186.109375 177.9375 184.355469 180.972656 C 181.574219 185.796875 178.785156 190.628906 155.300781 233.253906 Z M 180.375 233.253906 " fill-opacity="1" fill-rule="nonzero"/></g></svg>